<svg xmlns="http://www.w3.org/2000/svg" xmlns:xlink="http://www.w3.org/1999/xlink" viewBox="0 0 256.27 258.58"><defs><linearGradient id="linear-gradient" x1="127.73" y1="312.01" x2="307.57" y2="192.68" gradientUnits="userSpaceOnUse"><stop offset="0" stop-color="#8e54e9"/><stop offset="0.59" stop-color="#6567e7"/><stop offset="1" stop-color="#4776e6"/></linearGradient><linearGradient id="linear-gradient-2" x1="127.73" y1="312.01" x2="307.54" y2="192.7" xlink:href="#linear-gradient"/><linearGradient id="linear-gradient-3" x1="169.23" y1="286.37" x2="186.58" y2="274.86" gradientUnits="userSpaceOnUse"><stop offset="0" stop-color="#4776e6"/><stop offset="0.48" stop-color="#479fe6"/><stop offset="1" stop-color="#47cfe6"/></linearGradient><linearGradient id="linear-gradient-4" x1="191.53" y1="119.89" x2="102.04" y2="23.01" xlink:href="#linear-gradient-3"/><linearGradient id="linear-gradient-5" x1="223.96" y1="115.85" x2="316.01" y2="203.35" gradientTransform="translate(486.44 268.32) rotate(-180)" xlink:href="#linear-gradient-3"/><linearGradient id="linear-gradient-6" x1="263.03" y1="112.49" x2="233.03" y2="139.68" xlink:href="#linear-gradient-3"/><linearGradient id="linear-gradient-7" x1="314.62" y1="191.92" x2="284.62" y2="219.11" gradientTransform="matrix(0, -1, -1, 0, 511.73, 511.02)" xlink:href="#linear-gradient-3"/><linearGradient id="linear-gradient-8" x1="208.35" y1="228.58" x2="264.57" y2="228.58" xlink:href="#linear-gradient"/><linearGradient id="linear-gradient-9" x1="236.77" y1="102.37" x2="328.82" y2="189.88" xlink:href="#linear-gradient-3"/><linearGradient id="linear-gradient-10" x1="324.81" y1="223.73" x2="235.32" y2="126.85" xlink:href="#linear-gradient-3"/><linearGradient id="linear-gradient-11" x1="232.3" y1="156.65" x2="297.36" y2="228.24" xlink:href="#linear-gradient-3"/><linearGradient id="linear-gradient-12" x1="153.59" y1="223.54" x2="318.21" y2="223.54" xlink:href="#linear-gradient"/><linearGradient id="linear-gradient-13" x1="236.49" y1="174.29" x2="136.77" y2="215.2" gradientUnits="userSpaceOnUse"><stop offset="0" stop-color="#8e54e9" stop-opacity="0"/><stop offset="0.2" stop-color="#815ae8" stop-opacity="0.18"/><stop offset="0.65" stop-color="#6269e7" stop-opacity="0.63"/><stop offset="1" stop-color="#4776e6"/></linearGradient><linearGradient id="linear-gradient-14" x1="327.17" y1="268.54" x2="199.61" y2="274.51" xlink:href="#linear-gradient-13"/></defs><g style="isolation:isolate"><g id="Objects"><path d="M195.26,290.61l-18.55,5-19.63,5.25,5.27-19.63,5.05-18.92A89.5,89.5,0,0,0,195.26,290.61Z" transform="translate(-123.34 -113.03)" style="fill:url(#linear-gradient)"/><path d="M195.25,290.61l-13.1,3.5-5.44,1.47-19.63,5.25,5.26-19.62,3.82-14.3,1.24-4.63a86.28,86.28,0,0,0,7.06,9.87A89.12,89.12,0,0,0,195.25,290.61Z" transform="translate(-123.34 -113.03)" style="fill:url(#linear-gradient-2)"/><path d="M195.25,290.61l-13.1,3.5a71.26,71.26,0,0,1-16-27.2l8.3,5.24A89.12,89.12,0,0,0,195.25,290.61Z" transform="translate(-123.34 -113.03)" style="mix-blend-mode:multiply;opacity:0.5;fill:url(#linear-gradient-3)"/><polyline points="194.24 96.42 157.97 96.42 157.97 109.95 194.24 109.95" style="fill:url(#linear-gradient-4)"/><rect x="236.45" y="115.1" width="13.53" height="38.11" transform="translate(363.1 155.29) rotate(180)" style="fill:url(#linear-gradient-5)"/><path d="M236.45,128.12s9.54.48,13.54,7.79V122.35L236.45,125Z" transform="translate(-123.34 -113.03)" style="mix-blend-mode:multiply;opacity:0.5;fill:url(#linear-gradient-6)"/><path d="M304.18,223s-.47-9.53-7.79-13.53H310L307.33,223Z" transform="translate(-123.34 -113.03)" style="mix-blend-mode:multiply;opacity:0.5;fill:url(#linear-gradient-7)"/><path d="M236.45,194.87a28.11,28.11,0,0,0-28.1,28.1c0,15.53,28.1,39.31,28.1,39.31S264.57,238.5,264.57,223A28.12,28.12,0,0,0,236.45,194.87Zm0,41.12a13,13,0,1,1,13-13A13,13,0,0,1,236.45,236Z" transform="translate(-123.34 -113.03)" style="fill:url(#linear-gradient-8)"/><path d="M331.32,223a95,95,0,0,0-94.87-94.86V113a110.08,110.08,0,0,1,110,110" transform="translate(-123.34 -113.03)" style="fill:url(#linear-gradient-9)"/><path d="M319.31,223a82.94,82.94,0,0,0-82.86-82.84v15.09A67.84,67.84,0,0,1,304.22,223h15.09" transform="translate(-123.34 -113.03)" style="fill:url(#linear-gradient-10)"/><path d="M292.21,223H277.12a40.71,40.71,0,0,0-40.67-40.66V167.23A55.82,55.82,0,0,1,292.21,223Z" transform="translate(-123.34 -113.03)" style="fill:url(#linear-gradient-11)"/><path d="M318.21,236.52a82.86,82.86,0,0,1-81.76,69.33,83.29,83.29,0,0,1-16.84-1.7,82.91,82.91,0,0,1,1.61-162.63l1.71-.29v15.34a67.77,67.77,0,1,0,78,87.31,65.21,65.21,0,0,0,1.93-7.36h15.33" transform="translate(-123.34 -113.03)" style="fill:url(#linear-gradient-12)"/><path d="M221.22,141.52A82.78,82.78,0,0,0,177,165.34a104.7,104.7,0,0,0-6.16,15.81,102.77,102.77,0,0,0,.52,60.75,67.85,67.85,0,0,1,51.57-85.33V141.23Z" transform="translate(-123.34 -113.03)" style="mix-blend-mode:multiply;fill:url(#linear-gradient-13)"/><path d="M318.21,236.52a82.86,82.86,0,0,1-81.76,69.33,83.29,83.29,0,0,1-16.84-1.7h.33a84.64,84.64,0,0,0,81-60.27,65.21,65.21,0,0,0,1.93-7.36h15.33" transform="translate(-123.34 -113.03)" style="mix-blend-mode:multiply;fill:url(#linear-gradient-14)"/></g><g id="Texts"><text transform="translate(39.96 226.03)" style="font-size:23.708759307861328px;fill:#4776e6;font-family:Poppins-Bold, Poppins;font-weight:700">SMS HELPDESK</text><text transform="translate(0 249.11)" style="font-size:16.56572914123535px;fill:#333;font-family:Poppins-Regular, Poppins">SISTEMA DE GESTIÓN DE TICKETS</text></g></g></svg>